<svg xmlns="http://www.w3.org/2000/svg" id="Layer_1" viewBox="0 0 407.14 407.14"><defs fill="#57534f"><style>.cls-1{fill:#fff;}.cls-2{fill:#57534f;}</style></defs><path class="cls-2" d="M407.14,346.07c0,33.73-27.34,61.07-61.07,61.07H61.07c-33.73,0-61.07-27.34-61.07-61.07V61.07C0,27.34,27.34,0,61.07,0h285c33.73,0,61.07,27.34,61.07,61.07v285Z" fill="#57534f"/><path class="cls-1" d="M272.52,151.84c-32.86,1.72-61.44,11.68-84.63,34.18-23.44,22.74-34.14,50.6-31.21,85.14-12.84-1.59-24.54-3.34-36.31-4.33-4.06-.34-8.89.14-12.33,2.09-11.42,6.45-22.38,13.72-35.36,21.84,2.38-10.77,3.92-20.21,6.65-29.28,2.01-6.67,1.08-10.38-5.07-14.72-39.45-27.85-56.07-69.53-43.63-112.44,11.51-39.7,39.78-63.77,78.2-76.32,52.43-17.13,111.36.34,143.24,41.97,11.52,15.04,18.58,31.91,20.44,51.88h0ZM121.28,138.47c.3-7.85-6.5-14.92-14.58-15.16-8.27-.24-15.07,6.08-15.31,14.23-.24,8.26,6.07,14.88,14.4,15.09,8.26.21,15.18-6.12,15.49-14.16h0ZM200.19,123.31c-8.11.15-14.96,7.05-14.81,14.93.15,8.17,6.87,14.56,15.21,14.46,8.36-.1,14.7-6.56,14.62-14.9-.07-8.19-6.76-14.64-15.01-14.49Z" fill="#57534f"/><path class="cls-1" d="M346.34,356.7c-10.41-4.63-19.95-11.58-30.11-12.65-10.12-1.06-20.76,4.78-31.36,5.87-32.26,3.3-61.16-5.69-84.99-27.73-45.32-41.92-38.85-106.2,13.59-140.56,46.61-30.53,114.96-20.35,147.81,22.01,28.68,36.97,25.31,86.04-9.7,117.1-10.13,8.99-13.77,16.38-7.28,28.23,1.2,2.19,1.34,4.96,2.03,7.72h0ZM227.9,242.02c6.62,0,12.08-5.18,12.33-11.72.26-6.93-5.31-12.74-12.24-12.77-6.87-.03-12.62,5.86-12.38,12.68.23,6.52,5.72,11.79,12.29,11.8h0ZM304.26,217.56c-6.43-.04-11.89,5.22-12.15,11.71-.28,6.94,5.12,12.65,11.99,12.66,6.65.02,11.9-5.01,12.14-11.62.26-6.96-5.14-12.71-11.98-12.76Z" fill="#57534f"/></svg>